<?xml version="1.0" encoding="utf-8"?>
<!-- Svg Vector Icons : http://www.onlinewebfonts.com/icon -->
<!DOCTYPE svg PUBLIC "-//W3C//DTD SVG 1.1//EN" "http://www.w3.org/Graphics/SVG/1.1/DTD/svg11.dtd">
<svg version="1.1" xmlns="http://www.w3.org/2000/svg" xmlns:xlink="http://www.w3.org/1999/xlink" x="0px" y="0px" viewBox="0 0 1000 1000" enable-background="new 0 0 1000 1000" xml:space="preserve">
<metadata> Svg Vector Icons : http://www.onlinewebfonts.com/icon </metadata>
<g><g><g id="_x32__26_"><g><path d="M653.1,530.6H346.9c-16.9,0-30.6,13.7-30.6,30.6s13.7,30.6,30.6,30.6h306.3c16.9,0,30.6-13.7,30.6-30.6S670,530.6,653.1,530.6z M714.4,346.9H285.6c-16.9,0-30.6,13.7-30.6,30.6s13.7,30.6,30.6,30.6h428.8c16.9,0,30.6-13.7,30.6-30.6S731.3,346.9,714.4,346.9z M500,10C229.4,10,10,202,10,438.8c0,135.3,71.8,255.8,183.8,334.4V990l214.7-130.2c29.7,4.9,60.3,7.7,91.6,7.7c270.6,0,490-192,490-428.8C990,202,770.6,10,500,10z M500,806.3c-35.8,0-70.3-4.2-103.5-11.2l-144.2,86.7l1.9-142c-110.5-66.5-183-176.4-183-300.9c0-203,192-367.5,428.8-367.5c236.8,0,428.8,164.5,428.8,367.5C928.8,641.7,736.8,806.3,500,806.3z"/></g></g></g><g></g><g></g><g></g><g></g><g></g><g></g><g></g><g></g><g></g><g></g><g></g><g></g><g></g><g></g><g></g></g>
</svg>